<?xml version="1.0" encoding="UTF-8" standalone="no"?>
<!-- Created with Inkscape (http://www.inkscape.org/) -->

<svg
   xmlns:dc="http://purl.org/dc/elements/1.1/"
   xmlns:cc="http://creativecommons.org/ns#"
   xmlns:rdf="http://www.w3.org/1999/02/22-rdf-syntax-ns#"
   xmlns:svg="http://www.w3.org/2000/svg"
   xmlns="http://www.w3.org/2000/svg"
   xmlns:sodipodi="http://sodipodi.sourceforge.net/DTD/sodipodi-0.dtd"
   xmlns:inkscape="http://www.inkscape.org/namespaces/inkscape"
   id="svg7384"
   sodipodi:docname="opensuse.svg"
   version="1.1"
   inkscape:version="0.48.3.1 r9886"
   height="16"
   width="16"
   inkscape:export-filename="/home/alumno/Documentos/huayra-grub-themes/huayra-liso/icons/opensuse.png"
   inkscape:export-xdpi="270"
   inkscape:export-ydpi="270">
  <metadata
     id="metadata90">
    <rdf:RDF>
      <cc:Work
         rdf:about="">
        <dc:format>image/svg+xml</dc:format>
        <dc:type
           rdf:resource="http://purl.org/dc/dcmitype/StillImage" />
        <dc:title>Gnome Symbolic Icon Theme</dc:title>
      </cc:Work>
    </rdf:RDF>
  </metadata>
  <sodipodi:namedview
     inkscape:cy="-1.4270343"
     pagecolor="#555753"
     borderopacity="1"
     showborder="true"
     inkscape:bbox-paths="false"
     guidetolerance="10"
     inkscape:object-paths="true"
     inkscape:window-width="1296"
     showguides="true"
     inkscape:object-nodes="true"
     inkscape:snap-bbox="false"
     inkscape:pageshadow="2"
     inkscape:guide-bbox="true"
     inkscape:snap-nodes="false"
     bordercolor="#666666"
     objecttolerance="10"
     id="namedview88"
     showgrid="false"
     inkscape:window-maximized="0"
     inkscape:window-x="246"
     inkscape:snap-global="true"
     inkscape:window-y="39"
     gridtolerance="10"
     inkscape:window-height="1013"
     inkscape:snap-to-guides="true"
     inkscape:current-layer="layer10"
     inkscape:snap-bbox-midpoints="false"
     inkscape:zoom="18.225107"
     inkscape:cx="20.633305"
     inkscape:snap-grids="true"
     inkscape:pageopacity="0">
    <inkscape:grid
       spacingx="1px"
       spacingy="1px"
       id="grid4866"
       empspacing="2"
       enabled="true"
       type="xygrid"
       snapvisiblegridlinesonly="true"
       visible="true" />
  </sodipodi:namedview>
  <title
     id="title9167">Gnome Symbolic Icon Theme</title>
  <defs
     id="defs7386" />
  <g
     inkscape:label="status"
     transform="translate(-201.0002,-448)"
     inkscape:groupmode="layer"
     id="layer9"
     style="display:inline" />
  <g
     inkscape:label="devices"
     transform="translate(-201.0002,-448)"
     inkscape:groupmode="layer"
     id="layer10">
    <g
       inkscape:label="accessories-calculator"
       transform="translate(153.0002,50)"
       id="g39787" />
    <rect
       style="fill:#ccffaa;fill-opacity:1;stroke:none"
       id="rect7114"
       width="14.1875"
       height="14.625"
       x="0.9375"
       y="0.6875"
       transform="translate(201.0002,448)"
       rx="1.4445585"
       ry="1.418614" />
    <path
       d="m 214.17137,453.90796 c -0.29457,-0.0108 -0.5258,-0.25913 -0.51596,-0.55412 0.005,-0.14282 0.0656,-0.27483 0.16933,-0.3723 0.10417,-0.0974 0.24022,-0.14816 0.38305,-0.14279 0.29499,0.0103 0.52628,0.25823 0.51637,0.55367 -0.004,0.14238 -0.0647,0.27438 -0.16885,0.37227 -0.10465,0.097 -0.24071,0.14774 -0.38395,0.14327 l 1e-5,0 z m 0.12398,-0.48456 c 0.1311,0 0.2375,-0.0709 0.2375,-0.15803 0,-0.0876 -0.1064,-0.15852 -0.2375,-0.15852 -0.13117,0 -0.23715,0.071 -0.23715,0.15852 0,0.0871 0.10598,0.15803 0.23715,0.15803"
       style="fill:#73ba25;fill-rule:nonzero"
       id="path9149"
       inkscape:connector-curvature="0" />
    <path
       style="fill:#8dd35f;stroke:none;stroke-width:1px;stroke-linecap:butt;stroke-linejoin:miter;stroke-opacity:1;fill-opacity:1;opacity:0.44320004"
       d="m 2.0563204,7.0763456 -1.12515646,1.6683354 -0.0387985,5.1602 c 0,0 0.19399246,1.202754 1.12515646,1.319149 0.9311639,0.116396 5.0826031,0.0388 5.0826031,0.0388 L 14.394243,6.7659576 5.4317896,5.9511892 z"
       id="path9896"
       inkscape:connector-curvature="0"
       transform="translate(201.0002,448)" />
    <path
       d="m 208.11102,456.98037 0.019,-0.002 0.003,-0.0224 c -0.005,-0.0176 -0.0163,-0.0335 -0.0339,-0.25197 -0.015,-0.19338 -0.0454,-0.7237 0.22154,-0.98668 0.10355,-0.10264 0.26165,-0.19383 0.38635,-0.22333 0.5114,-0.12466 1.17522,-0.0383 1.74211,0.61714 0.29252,0.33872 0.43612,0.49333 0.50791,0.56249 l 0.0246,0.0229 0.03,0.0216 c 0.0233,0.0132 0.97433,0.45106 0.97433,0.45106 l 0.0194,-0.005 4.9e-4,-0.0207 c -0.006,-0.007 -0.60257,-0.7775 -0.49689,-1.41222 0.0837,-0.50568 0.48628,-0.46031 1.04265,-0.3969 0.18191,0.0207 0.38895,0.0445 0.60304,0.0494 0.5977,0.004 1.24173,-0.10615 1.63863,-0.27972 0.25679,-0.11231 0.42064,-0.18634 0.5233,-0.27972 0.037,-0.0304 0.0563,-0.0806 0.0762,-0.13346 l 0.0137,-0.0357 c 0.0167,-0.0428 0.0409,-0.13435 0.0515,-0.18414 0.005,-0.022 0.007,-0.0458 -0.008,-0.0577 l -0.055,0.0101 c -0.17398,0.10441 -0.60968,0.30351 -1.01753,0.31144 -0.50523,0.0105 -1.52364,-0.50835 -1.6298,-0.56341 l -0.0101,-0.0119 c -0.0256,-0.0608 -0.17842,-0.42246 -0.21059,-0.49863 0.73301,0.48275 1.34084,0.74971 1.80645,0.79112 0.51803,0.0462 0.92198,-0.23654 1.09465,-0.35727 0.0339,-0.0229 0.0595,-0.0414 0.07,-0.0454 l 0.011,-0.0181 c -0.0287,-0.18192 -0.29957,-1.0629 -0.50393,-1.27435 -0.0568,-0.0582 -0.10219,-0.11451 -0.19383,-0.16827 -0.74047,-0.43166 -2.49846,-0.69246 -2.58079,-0.70433 l -0.0141,0.004 -0.005,0.0123 c 0,0 -0.007,0.36472 -0.008,0.40527 -0.17973,-0.0599 -1.48484,-0.48148 -2.70858,-0.52419 -1.0373,-0.0366 -2.45438,-0.0859 -4.45685,1.14482 l -0.059,0.037 c -0.94175,0.5876 -1.59192,1.31178 -1.93197,2.15399 -0.1066,0.26473 -0.25018,0.8625 -0.10838,1.42499 0.0617,0.24626 0.17576,0.49292 0.32996,0.71405 0.34755,0.49949 0.93118,0.83123 1.55975,0.88714 0.88714,0.0793 1.55934,-0.31934 1.79851,-1.06556 0.16429,-0.51493 0,-1.27035 -0.6299,-1.65578 -0.51229,-0.31407 -1.06379,-0.24228 -1.38314,-0.0313 -0.2775,0.18411 -0.43474,0.46955 -0.43166,0.78363 0.006,0.55633 0.48586,0.85234 0.83033,0.85278 0.1004,0 0.20084,-0.0172 0.31449,-0.0542 0.0401,-0.0124 0.0784,-0.0273 0.12025,-0.0533 l 0.0128,-0.008 0.008,-0.005 -0.003,0.001 c 0.0788,-0.0529 0.12641,-0.14006 0.12641,-0.23345 0,-0.0256 -0.004,-0.0515 -0.011,-0.0775 -0.0405,-0.14051 -0.17973,-0.22595 -0.3242,-0.19954 l -0.0194,0.004 -0.0264,0.009 -0.0383,0.0128 c -0.0793,0.0198 -0.13921,0.0211 -0.15153,0.0216 -0.0405,-0.003 -0.2392,-0.0621 -0.2392,-0.27969 l 0,-0.003 c 4.8e-4,-0.0797 0.0326,-0.13568 0.0502,-0.16607 0.0612,-0.0969 0.23037,-0.19205 0.45896,-0.17179 0.29957,0.0255 0.5154,0.17928 0.65855,0.46913 0.13305,0.26955 0.0982,0.60081 -0.0894,0.84395 -0.18633,0.24099 -0.518,0.34317 -0.95938,0.29512 -0.44491,-0.0489 -0.82106,-0.30481 -1.03162,-0.70344 -0.20615,-0.38941 -0.21761,-0.85149 -0.0295,-1.20649 0.45062,-0.85015 1.30118,-0.84135 1.76768,-0.76073 0.69068,0.11936 1.3175,0.67216 1.59633,1.40737 0.0445,0.11717 0.0674,0.21011 0.0872,0.29468 l 0.03,0.1273 0.78007,0.38101 0.0106,0.007 2e-5,-1e-5 z m 5.54487,-4.14941 c -0.14708,0.13654 -0.23127,0.32287 -0.23832,0.52375 -0.0136,0.41404 0.31148,0.76292 0.72549,0.77835 0.20176,0.007 0.39292,-0.0643 0.53959,-0.20176 0.14667,-0.13699 0.23085,-0.32287 0.23832,-0.52331 0.0141,-0.41448 -0.311,-0.7638 -0.72589,-0.77876 -0.20088,-0.007 -0.39252,0.0643 -0.53919,0.20173"
       style="fill:#73ba25;fill-rule:evenodd"
       id="path9151"
       inkscape:connector-curvature="0" />
  </g>
  <g
     inkscape:label="apps"
     transform="translate(-201.0002,-448)"
     inkscape:groupmode="layer"
     id="layer11" />
  <g
     inkscape:label="actions"
     transform="translate(-201.0002,-448)"
     inkscape:groupmode="layer"
     id="layer12" />
  <g
     inkscape:label="places"
     transform="translate(-201.0002,-448)"
     inkscape:groupmode="layer"
     id="layer13" />
  <g
     inkscape:label="mimetypes"
     transform="translate(-201.0002,-448)"
     inkscape:groupmode="layer"
     id="layer14" />
  <g
     inkscape:label="emblems"
     transform="translate(-201.0002,-448)"
     inkscape:groupmode="layer"
     id="layer15"
     style="display:inline" />
  <g
     inkscape:label="categories"
     transform="translate(-201.0002,-448)"
     inkscape:groupmode="layer"
     id="g4953"
     style="display:inline" />
</svg>
