<?xml version="1.0" encoding="UTF-8" standalone="no"?>
<!-- Created with Inkscape (http://www.inkscape.org/) -->

<svg
   xmlns:dc="http://purl.org/dc/elements/1.1/"
   xmlns:cc="http://creativecommons.org/ns#"
   xmlns:rdf="http://www.w3.org/1999/02/22-rdf-syntax-ns#"
   xmlns:svg="http://www.w3.org/2000/svg"
   xmlns="http://www.w3.org/2000/svg"
   xmlns:sodipodi="http://sodipodi.sourceforge.net/DTD/sodipodi-0.dtd"
   xmlns:inkscape="http://www.inkscape.org/namespaces/inkscape"
   id="svg7384"
   sodipodi:docname="debian.svg"
   version="1.1"
   inkscape:version="0.48.3.1 r9886"
   height="16"
   width="16"
   inkscape:export-filename="/home/alumno/Documentos/huayra-grub-themes/huayra-liso/icons/debian.png"
   inkscape:export-xdpi="270"
   inkscape:export-ydpi="270">
  <metadata
     id="metadata90">
    <rdf:RDF>
      <cc:Work
         rdf:about="">
        <dc:format>image/svg+xml</dc:format>
        <dc:type
           rdf:resource="http://purl.org/dc/dcmitype/StillImage" />
        <dc:title>Gnome Symbolic Icon Theme</dc:title>
      </cc:Work>
    </rdf:RDF>
  </metadata>
  <sodipodi:namedview
     inkscape:cy="4.9466148"
     pagecolor="#555753"
     borderopacity="1"
     showborder="true"
     inkscape:bbox-paths="false"
     guidetolerance="10"
     inkscape:object-paths="true"
     inkscape:window-width="1296"
     showguides="true"
     inkscape:object-nodes="true"
     inkscape:snap-bbox="false"
     inkscape:pageshadow="2"
     inkscape:guide-bbox="true"
     inkscape:snap-nodes="false"
     bordercolor="#666666"
     objecttolerance="10"
     id="namedview88"
     showgrid="false"
     inkscape:window-maximized="0"
     inkscape:window-x="99"
     inkscape:snap-global="true"
     inkscape:window-y="26"
     gridtolerance="10"
     inkscape:window-height="1013"
     inkscape:snap-to-guides="true"
     inkscape:current-layer="layer10"
     inkscape:snap-bbox-midpoints="false"
     inkscape:zoom="16"
     inkscape:cx="8.517113"
     inkscape:snap-grids="true"
     inkscape:pageopacity="0">
    <inkscape:grid
       spacingx="1px"
       spacingy="1px"
       id="grid4866"
       empspacing="2"
       enabled="true"
       type="xygrid"
       snapvisiblegridlinesonly="true"
       visible="true" />
  </sodipodi:namedview>
  <title
     id="title9167">Gnome Symbolic Icon Theme</title>
  <defs
     id="defs7386" />
  <g
     inkscape:label="status"
     transform="translate(-201.0002,-448)"
     inkscape:groupmode="layer"
     id="layer9"
     style="display:inline" />
  <g
     inkscape:label="devices"
     transform="translate(-201.0002,-448)"
     inkscape:groupmode="layer"
     id="layer10">
    <g
       inkscape:label="accessories-calculator"
       transform="translate(153.0002,50)"
       id="g39787" />
    <rect
       style="fill:#ffd5d5;fill-opacity:1;stroke:none"
       id="rect7114"
       width="14.1875"
       height="14.625"
       x="0.9375"
       y="0.6875"
       transform="translate(201.0002,448)"
       rx="1.4445585"
       ry="1.418614" />
    <path
       style="fill:#d70751;stroke:none;stroke-width:1px;stroke-linecap:butt;stroke-linejoin:miter;stroke-opacity:1;fill-opacity:1;opacity:0.25"
       d="M 4.6875,3.3125 0.96875,6 0.9375,14.0625 c 0,0 0.28125,1.21875 1.125,1.1875 0.84375,-0.03125 5.09375,0.0625 5.09375,0.0625 l 1.3125,-1.03125 c 0,0 -2.5,-0.40625 -3.21875,-1.59375 C 4.53125,11.5 3.46875,9.5625 3.46875,9 c 0,-0.5625 0.125,-2.78125 0.75,-3.9375 0.625,-1.15625 0.46875,-1.75 0.46875,-1.75 z"
       id="path3011"
       inkscape:connector-curvature="0"
       transform="translate(201.0002,448)" />
    <g
       id="g7081"
       transform="matrix(0.39619627,0,0,0.39619627,136.19278,263.3991)">
      <path
         id="path6986"
         d="m 186.10929,487.02314 c -0.52477,0.007 0.0987,0.26976 0.78398,0.37548 0.19003,-0.14822 0.36073,-0.29716 0.51388,-0.44257 -0.42607,0.10432 -0.86021,0.10678 -1.29786,0.0671"
         inkscape:connector-curvature="0"
         style="fill:#d70751" />
      <path
         id="path6988"
         d="m 188.92524,486.32099 c 0.31366,-0.43168 0.54127,-0.90376 0.62171,-1.39199 -0.0706,0.34773 -0.25852,0.64805 -0.43695,0.96558 -0.98104,0.61784 -0.0927,-0.3667 -7.1e-4,-0.74149 -1.05444,1.32877 -0.14541,0.79663 -0.18405,1.1679"
         inkscape:connector-curvature="0"
         style="fill:#d70751" />
      <path
         id="path6990"
         d="m 189.96599,483.61498 c 0.0639,-0.94521 -0.18581,-0.64595 -0.26976,-0.28592 0.0976,0.0513 0.17527,0.66667 0.26976,0.28592"
         inkscape:connector-curvature="0"
         style="fill:#d70751" />
      <path
         id="path6992"
         d="m 184.11841,470.69643 c 0.2803,0.0499 0.60555,0.0885 0.55884,0.15561 0.30769,-0.0678 0.37689,-0.12892 -0.55884,-0.15561"
         inkscape:connector-curvature="0"
         style="fill:#d70751" />
      <path
         id="path6994"
         d="m 184.6776,470.85204 -0.19705,0.0411 0.1837,-0.0169 0.0134,-0.0242"
         inkscape:connector-curvature="0"
         style="fill:#d70751" />
      <path
         id="path6996"
         d="m 193.41278,483.97325 c 0.0316,0.84862 -0.24762,1.26098 -0.50017,1.99017 l -0.45417,0.22586 c -0.37127,0.72146 0.0369,0.45802 -0.22901,1.03161 -0.58026,0.51528 -1.75835,1.61188 -2.13559,1.71234 -0.27573,-0.006 0.18652,-0.32526 0.24693,-0.44995 -0.77591,0.53249 -0.62276,0.79944 -1.80963,1.12364 l -0.0344,-0.0776 c -2.9259,1.37689 -6.99054,-1.35125 -6.93715,-5.07307 -0.0309,0.23604 -0.0889,0.17703 -0.1535,0.27187 -0.15103,-1.91466 0.88445,-3.83774 2.63085,-4.62418 1.70812,-0.84511 3.71059,-0.49878 4.93328,0.64243 -0.67159,-0.88023 -2.00949,-1.8135 -3.59397,-1.72709 -1.55287,0.0253 -3.00598,1.01195 -3.4907,2.0836 -0.79523,0.50053 -0.88796,1.93046 -1.23429,2.19249 -0.46681,3.42818 0.87707,4.90869 3.1507,6.65124 0.35687,0.24095 0.10045,0.27783 0.14822,0.46118 -0.75518,-0.35335 -1.44643,-0.88725 -2.01546,-1.54092 0.30208,0.44152 0.62768,0.87074 1.04883,1.20794 -0.71268,-0.24061 -1.66421,-1.72568 -1.94135,-1.7861 1.22761,2.19811 4.98,3.85495 6.94593,3.03268 -0.90973,0.0337 -2.06499,0.0186 -3.08642,-0.35897 -0.43027,-0.22094 -1.013,-0.67791 -0.90867,-0.76327 2.68213,1.00141 5.45207,0.758 7.77241,-1.10186 0.5908,-0.46014 1.23569,-1.24237 1.4222,-1.2529 -0.28064,0.4222 0.0481,0.20302 -0.16754,0.57569 0.58728,-0.94872 -0.25606,-0.38637 0.60766,-1.63822 l 0.31893,0.43906 c -0.11942,-0.7882 0.97823,-1.7443 0.86653,-2.98982 0.25184,-0.38075 0.28065,0.41026 0.0137,1.28627 0.37057,-0.9719 0.098,-1.12821 0.19283,-1.93046 0.10222,0.26976 0.23815,0.55603 0.30735,0.84089 -0.24166,-0.93959 0.24692,-1.58167 0.36846,-2.12786 -0.12013,-0.0527 -0.37268,0.41517 -0.43099,-0.69407 0.009,-0.48191 0.13453,-0.25255 0.18265,-0.37127 -0.0941,-0.0544 -0.34247,-0.42395 -0.49315,-1.13242 0.10853,-0.16684 0.29224,0.43168 0.44117,0.45592 -0.0959,-0.56305 -0.26063,-0.99263 -0.26765,-1.42501 -0.43555,-0.90974 -0.1542,0.12153 -0.50685,-0.39059 -0.46365,-1.44504 0.38426,-0.33544 0.44186,-0.99157 0.7018,1.01686 1.10187,2.59396 1.28628,3.24693 -0.1405,-0.79628 -0.36706,-1.56797 -0.64419,-2.31437 0.21391,0.0903 -0.34387,-1.63787 0.27783,-0.49351 -0.6635,-2.43941 -2.83738,-4.71901 -4.83773,-5.78821 0.24411,0.22374 0.55286,0.50475 0.44257,0.549 -0.99544,-0.59185 -0.82052,-0.63857 -0.96312,-0.88865 -0.80963,-0.32983 -0.86372,0.027 -1.39938,7e-4 -1.52792,-0.81068 -1.82227,-0.72462 -3.22832,-1.23183 l 0.0639,0.29927 c -1.01194,-0.3372 -1.17914,0.12715 -2.27257,7e-4 -0.0664,-0.0516 0.35054,-0.18827 0.69406,-0.2378 -0.97857,0.12926 -0.93291,-0.19318 -1.89041,0.0355 0.23568,-0.16544 0.48577,-0.27538 0.73727,-0.41588 -0.79769,0.0485 -1.90517,0.46435 -1.56341,0.0857 -1.30137,0.58096 -3.61293,1.39621 -4.91009,2.61258 l -0.0408,-0.27257 c -0.59431,0.71338 -2.59186,2.13067 -2.75097,3.05551 l -0.15912,0.0369 c -0.30874,0.52371 -0.50931,1.11696 -0.75448,1.65543 -0.40428,0.6895 -0.5929,0.26554 -0.5353,0.37373 -0.79558,1.61293 -1.19143,2.96804 -1.5325,4.08009 0.24307,0.36355 0.006,2.18898 0.0977,3.64982 -0.39902,7.21604 5.0643,14.22168 11.03621,15.83883 0.87531,0.31366 2.17669,0.30242 3.28382,0.33333 -1.30594,-0.37373 -1.47454,-0.19775 -2.74746,-0.64138 -0.91781,-0.43274 -1.11873,-0.92624 -1.76924,-1.4907 l 0.25747,0.45487 c -1.27503,-0.45135 -0.74149,-0.55848 -1.77907,-0.8869 l 0.27502,-0.35863 c -0.41341,-0.0316 -1.09483,-0.69617 -1.281,-1.06533 l -0.4524,0.0179 c -0.54303,-0.66948 -0.83282,-1.15314 -0.81139,-1.52793 l -0.14612,0.26063 c -0.16543,-0.28416 -1.99895,-2.51423 -1.04777,-1.99509 -0.17668,-0.16087 -0.41166,-0.26238 -0.66632,-0.72568 l 0.19354,-0.22093 c -0.45697,-0.58904 -0.84229,-1.34388 -0.81279,-1.59537 0.24412,0.32947 0.41342,0.39129 0.58132,0.44784 -1.15596,-2.86759 -1.22094,-0.15771 -2.0959,-2.91887 l 0.18476,-0.0148 c -0.14155,-0.21462 -0.22831,-0.44609 -0.34212,-0.67405 l 0.0808,-0.8026 c -0.83176,-0.96101 -0.23253,-4.09028 -0.11205,-5.80613 0.0825,-0.69758 0.69442,-1.44046 1.15912,-2.60555 l -0.28311,-0.0485 c 0.54163,-0.94415 3.09169,-3.79312 4.27329,-3.647 0.57218,-0.71866 -0.11381,-0.003 -0.22586,-0.18335 1.25712,-1.30068 1.65227,-0.91887 2.50054,-1.15315 0.9143,-0.54268 -0.78504,0.21215 -0.3516,-0.20689 1.58167,-0.40358 1.12048,-0.91816 3.18336,-1.12294 0.21777,0.12364 -0.50474,0.19108 -0.68599,0.3516 1.31718,-0.64489 4.16897,-0.49772 6.02215,0.35757 2.14858,1.00492 4.56412,3.97402 4.65965,6.7675 l 0.10854,0.0292 c -0.0548,1.11065 0.17,2.39516 -0.22023,3.57465 l 0.26378,-0.55883"
         inkscape:connector-curvature="0"
         style="fill:#d70751" />
      <path
         id="path6998"
         d="m 180.38008,487.7432 -0.0741,0.36775 c 0.34527,0.46892 0.61925,0.97682 1.05936,1.34212 -0.31683,-0.61784 -0.55181,-0.8732 -0.98525,-1.70987"
         inkscape:connector-curvature="0"
         style="fill:#d70751" />
      <path
         id="path7000"
         d="m 181.19533,487.71158 c -0.18265,-0.20231 -0.29014,-0.44538 -0.41167,-0.68704 0.11591,0.42537 0.35336,0.79101 0.57359,1.16334 l -0.16192,-0.4763"
         inkscape:connector-curvature="0"
         style="fill:#d70751" />
      <path
         id="path7002"
         d="m 195.626,484.57494 -0.0769,0.19389 c -0.14121,1.00386 -0.44715,1.99719 -0.91501,2.91852 0.51704,-0.9719 0.85037,-2.03513 0.99193,-3.11241"
         inkscape:connector-curvature="0"
         style="fill:#d70751" />
      <path
         id="path7004"
         d="m 184.22273,470.44459 c 0.35441,-0.12961 0.8718,-0.0713 1.24904,-0.15666 -0.49104,0.0411 -0.97963,0.0657 -1.46189,0.12715 l 0.21285,0.0295"
         inkscape:connector-curvature="0"
         style="fill:#d70751" />
      <path
         id="path7006"
         d="m 171.76362,477.06983 c 0.0818,0.75658 -0.56902,1.05058 0.14401,0.5511 0.38286,-0.86196 -0.14893,-0.23779 -0.14401,-0.5511"
         inkscape:connector-curvature="0"
         style="fill:#d70751" />
      <path
         id="path7008"
         d="m 170.92484,480.57317 c 0.16473,-0.50474 0.19424,-0.80752 0.25711,-1.1001 -0.45416,0.58096 -0.20934,0.70495 -0.25711,1.1001"
         inkscape:connector-curvature="0"
         style="fill:#d70751" />
    </g>
  </g>
  <g
     inkscape:label="apps"
     transform="translate(-201.0002,-448)"
     inkscape:groupmode="layer"
     id="layer11" />
  <g
     inkscape:label="actions"
     transform="translate(-201.0002,-448)"
     inkscape:groupmode="layer"
     id="layer12" />
  <g
     inkscape:label="places"
     transform="translate(-201.0002,-448)"
     inkscape:groupmode="layer"
     id="layer13" />
  <g
     inkscape:label="mimetypes"
     transform="translate(-201.0002,-448)"
     inkscape:groupmode="layer"
     id="layer14" />
  <g
     inkscape:label="emblems"
     transform="translate(-201.0002,-448)"
     inkscape:groupmode="layer"
     id="layer15"
     style="display:inline" />
  <g
     inkscape:label="categories"
     transform="translate(-201.0002,-448)"
     inkscape:groupmode="layer"
     id="g4953"
     style="display:inline" />
</svg>
