<?xml version="1.0" encoding="UTF-8" standalone="no"?>
<!-- Created with Inkscape (http://www.inkscape.org/) -->

<svg
   xmlns:dc="http://purl.org/dc/elements/1.1/"
   xmlns:cc="http://creativecommons.org/ns#"
   xmlns:rdf="http://www.w3.org/1999/02/22-rdf-syntax-ns#"
   xmlns:svg="http://www.w3.org/2000/svg"
   xmlns="http://www.w3.org/2000/svg"
   xmlns:sodipodi="http://sodipodi.sourceforge.net/DTD/sodipodi-0.dtd"
   xmlns:inkscape="http://www.inkscape.org/namespaces/inkscape"
   id="svg7384"
   sodipodi:docname="gentoo.svg"
   version="1.1"
   inkscape:version="0.48.3.1 r9886"
   height="16"
   width="16"
   inkscape:export-filename="/home/alumno/Documentos/huayra-grub-themes/huayra-liso/icons/gentoo.png"
   inkscape:export-xdpi="270"
   inkscape:export-ydpi="270">
  <metadata
     id="metadata90">
    <rdf:RDF>
      <cc:Work
         rdf:about="">
        <dc:format>image/svg+xml</dc:format>
        <dc:type
           rdf:resource="http://purl.org/dc/dcmitype/StillImage" />
        <dc:title>Gnome Symbolic Icon Theme</dc:title>
      </cc:Work>
    </rdf:RDF>
  </metadata>
  <sodipodi:namedview
     inkscape:cy="11.850419"
     pagecolor="#555753"
     borderopacity="1"
     showborder="true"
     inkscape:bbox-paths="false"
     guidetolerance="10"
     inkscape:object-paths="true"
     inkscape:window-width="1296"
     showguides="true"
     inkscape:object-nodes="true"
     inkscape:snap-bbox="false"
     inkscape:pageshadow="2"
     inkscape:guide-bbox="true"
     inkscape:snap-nodes="false"
     bordercolor="#666666"
     objecttolerance="10"
     id="namedview88"
     showgrid="false"
     inkscape:window-maximized="0"
     inkscape:window-x="99"
     inkscape:snap-global="true"
     inkscape:window-y="26"
     gridtolerance="10"
     inkscape:window-height="1013"
     inkscape:snap-to-guides="true"
     inkscape:current-layer="layer10"
     inkscape:snap-bbox-midpoints="false"
     inkscape:zoom="18.225107"
     inkscape:cx="11.347004"
     inkscape:snap-grids="true"
     inkscape:pageopacity="0">
    <inkscape:grid
       spacingx="1px"
       spacingy="1px"
       id="grid4866"
       empspacing="2"
       enabled="true"
       type="xygrid"
       snapvisiblegridlinesonly="true"
       visible="true" />
  </sodipodi:namedview>
  <title
     id="title9167">Gnome Symbolic Icon Theme</title>
  <defs
     id="defs7386" />
  <g
     inkscape:label="status"
     transform="translate(-201.0002,-448)"
     inkscape:groupmode="layer"
     id="layer9"
     style="display:inline" />
  <g
     inkscape:label="devices"
     transform="translate(-201.0002,-448)"
     inkscape:groupmode="layer"
     id="layer10">
    <g
       inkscape:label="accessories-calculator"
       transform="translate(153.0002,50)"
       id="g39787" />
    <rect
       style="fill:#87cdde;fill-opacity:1;stroke:none"
       id="rect7114"
       width="14.1875"
       height="14.625"
       x="0.9375"
       y="0.6875"
       transform="translate(201.0002,448)"
       rx="1.4445585"
       ry="1.418614" />
    <path
       style="fill:#12a0c4;stroke:none;stroke-width:1px;stroke-linecap:butt;stroke-linejoin:miter;stroke-opacity:1;fill-opacity:1;opacity:0.54"
       d="m 2.1947745,4.8615196 -1.26199535,1.6460808 0,7.4622336 c 0,0 0.10973875,1.261995 1.20712595,1.261995 1.0973872,0 6.5294541,0.109739 6.5294541,0.109739 L 14.59525,8.4280281 z"
       id="path10668"
       inkscape:connector-curvature="0"
       transform="translate(201.0002,448)" />
    <g
       transform="matrix(0.02179758,0,0,0.02179758,202.29076,448.70425)"
       style="display:inline"
       id="g7985">
      <path
         inkscape:connector-curvature="0"
         sodipodi:nodetypes="cscssssssssssscss"
         d="M 25.756851,521.91391 C 25.825031,495.65357 48.148853,458.98977 79.868697,425.68116 101.06675,403.42137 122.59556,383.88231 169.52585,343.86782 137.06358,326.05537 86.575337,304.5643 61.242464,276.41883 51.868932,266.00461 34.879101,242.4107 38.174477,210.88878 44.890902,146.64282 124.18914,49.142619 236.90525,28.529375 c 37.50415,-6.858661 80.56354,-1.907781 116.00271,14.024919 111.18036,49.984243 247.14797,174.162266 263.8771,234.794926 5.88837,21.34165 4.75656,55.36025 -5.39475,74.31982 -12.58141,23.49823 -56.1358,71.22495 -115.72484,120.47315 -93.4994,77.2739 -224.52102,160.24847 -322.35291,174.21052 -31.611,4.51135 -63.90775,-0.19399 -86.572466,-12.98278 C 51.279241,613.36083 39.508186,586.6468 35.370326,578.63961 24.367104,557.34729 25.73287,530.37254 25.756851,521.91391 z M 288.89937,226.87362 c 1.20738,-14.88942 59.59326,-0.0658 55.90415,11.72547 -3.89197,12.43966 -57.28926,5.35537 -55.90415,-11.72547 z"
         style="fill:#12a0c4;fill-opacity:1;fill-rule:evenodd;stroke:none;display:inline"
         id="path2973" />
      <path
         inkscape:connector-curvature="0"
         sodipodi:nodetypes="csssssssccssss"
         d="M 201.12502,319.26488 C 170.40092,345.206 149.97273,362.69737 124.3619,386.10521 62.686019,442.47585 20.779962,485.38384 42.384986,544.03745 67.307886,611.6985 121.94112,608.26771 186.00654,595.69143 351.14346,563.12161 622.59855,354.43165 608.76251,277.34931 597.56708,214.97818 445.90819,90.975251 356.11423,46.84913 328.062,33.063819 295.73224,25.934162 263.30502,27.459889 139.83437,33.287522 43.410732,145.70192 48.3364,206.6102 53.12843,265.866 202.89233,317.49757 201.12502,319.26488 z M 182.59146,112.40184 c -37.15326,41.33629 -13.39873,121.3113 48.21486,164.90276 72.09526,51.00721 188.8443,60.24272 212.0774,20.90556 43.33515,-73.37278 -3.98029,-150.9555 -74.61054,-185.56335 -69.7954,-34.198724 -162.52227,-26.01189 -185.68172,-0.24497 z"
         style="fill:#85def4;fill-opacity:1;fill-rule:evenodd;stroke:none;display:inline"
         id="path2975" />
      <path
         inkscape:connector-curvature="0"
         sodipodi:nodetypes="csssscss"
         d="m 309.29559,275.57053 c 52.15894,7.24994 97.11719,-13.63858 104.1475,-65.14342 5.35537,-39.2337 -54.68938,-82.09994 -90.78995,-91.98681 -30.14631,-8.25614 -95.59547,2.36034 -100.00778,59.37779 -4.58678,59.27202 56.23678,93.52508 86.65023,97.75244 z m -25.54268,-98.581 c -34.27878,53.10396 49.77027,69.43027 62.63837,59.7456 55.47708,-41.75261 -47.53597,-83.14191 -62.63837,-59.7456 z"
         style="fill:#40caed;fill-opacity:1;fill-rule:evenodd;stroke:none;display:inline"
         id="path4976" />
      <path
         inkscape:connector-curvature="0"
         sodipodi:nodetypes="cssssssssssscsscsss"
         id="path2977"
         d="M 253.35285,41.570018 C 192.71898,47.959829 181.10644,55.76371 126.17687,97.322591 107.767,111.25125 73.883463,145.14202 65.201668,185.34831 c -3.306505,15.31275 0.601944,28.53259 11.630184,37.80412 35.312998,29.68796 94.416058,53.77395 142.904478,77.05704 14.20232,6.81964 4.79874,19.18504 -18.10392,39.01252 -57.79173,50.03186 -135.926941,110.93446 -141.3817,157.34203 -2.570415,21.86837 4.916125,51.5832 31.459397,66.7898 31.006723,17.76369 95.372133,6.16955 138.351373,-9.835 62.80599,-23.38762 145.30781,-75.00368 210.80628,-125.74104 68.11013,-52.76042 131.43764,-119.77326 134.57017,-130.70294 3.84668,-13.42147 3.46325,-25.81795 -3.96035,-40.07068 C 559.81983,234.62227 544.23417,217.99109 527.49924,199.37578 482.59667,152.03725 435.087,110.44129 378.2447,78.565883 337.19672,55.547464 301.08129,36.540217 253.35285,41.570018 z m 89.06787,106.129442 c 43.80514,21.17863 88.78971,76.80693 -0.39035,108.8248 -24.25015,8.70642 -101.15792,-21.38222 -98.80358,-62.4438 3.43316,-60.65568 45.70723,-72.24041 99.19393,-46.381 z"
         style="fill:#def6fc;fill-opacity:1;fill-rule:evenodd;stroke:none" />
    </g>
  </g>
  <g
     inkscape:label="apps"
     transform="translate(-201.0002,-448)"
     inkscape:groupmode="layer"
     id="layer11" />
  <g
     inkscape:label="actions"
     transform="translate(-201.0002,-448)"
     inkscape:groupmode="layer"
     id="layer12" />
  <g
     inkscape:label="places"
     transform="translate(-201.0002,-448)"
     inkscape:groupmode="layer"
     id="layer13" />
  <g
     inkscape:label="mimetypes"
     transform="translate(-201.0002,-448)"
     inkscape:groupmode="layer"
     id="layer14" />
  <g
     inkscape:label="emblems"
     transform="translate(-201.0002,-448)"
     inkscape:groupmode="layer"
     id="layer15"
     style="display:inline" />
  <g
     inkscape:label="categories"
     transform="translate(-201.0002,-448)"
     inkscape:groupmode="layer"
     id="g4953"
     style="display:inline" />
</svg>
