<?xml version="1.0" encoding="UTF-8" standalone="no"?>
<!-- Created with Inkscape (http://www.inkscape.org/) -->

<svg
   xmlns:dc="http://purl.org/dc/elements/1.1/"
   xmlns:cc="http://creativecommons.org/ns#"
   xmlns:rdf="http://www.w3.org/1999/02/22-rdf-syntax-ns#"
   xmlns:svg="http://www.w3.org/2000/svg"
   xmlns="http://www.w3.org/2000/svg"
   xmlns:sodipodi="http://sodipodi.sourceforge.net/DTD/sodipodi-0.dtd"
   xmlns:inkscape="http://www.inkscape.org/namespaces/inkscape"
   id="svg7384"
   sodipodi:docname="huayra.svg"
   version="1.1"
   inkscape:version="0.48.3.1 r9886"
   height="16"
   width="16"
   inkscape:export-filename="/home/alumno/Documentos/huayra-grub-themes/huayra-limbo/icons/huayra.png"
   inkscape:export-xdpi="272.77533"
   inkscape:export-ydpi="272.77533">
  <metadata
     id="metadata90">
    <rdf:RDF>
      <cc:Work
         rdf:about="">
        <dc:format>image/svg+xml</dc:format>
        <dc:type
           rdf:resource="http://purl.org/dc/dcmitype/StillImage" />
        <dc:title>Gnome Symbolic Icon Theme</dc:title>
      </cc:Work>
    </rdf:RDF>
  </metadata>
  <sodipodi:namedview
     inkscape:cy="-1.5952727"
     pagecolor="#555753"
     borderopacity="1"
     showborder="true"
     inkscape:bbox-paths="false"
     guidetolerance="10"
     inkscape:object-paths="true"
     inkscape:window-width="1296"
     showguides="true"
     inkscape:object-nodes="true"
     inkscape:snap-bbox="false"
     inkscape:pageshadow="2"
     inkscape:guide-bbox="true"
     inkscape:snap-nodes="false"
     bordercolor="#666666"
     objecttolerance="10"
     id="namedview88"
     showgrid="false"
     inkscape:window-maximized="0"
     inkscape:window-x="366"
     inkscape:snap-global="true"
     inkscape:window-y="39"
     gridtolerance="10"
     inkscape:window-height="1013"
     inkscape:snap-to-guides="true"
     inkscape:current-layer="layer10"
     inkscape:snap-bbox-midpoints="false"
     inkscape:zoom="12.887097"
     inkscape:cx="-4.4015113"
     inkscape:snap-grids="true"
     inkscape:pageopacity="0">
    <inkscape:grid
       spacingx="1px"
       spacingy="1px"
       id="grid4866"
       empspacing="2"
       enabled="true"
       type="xygrid"
       snapvisiblegridlinesonly="true"
       visible="true" />
  </sodipodi:namedview>
  <title
     id="title9167">Gnome Symbolic Icon Theme</title>
  <defs
     id="defs7386" />
  <g
     inkscape:label="status"
     transform="translate(-201.0002,-448)"
     inkscape:groupmode="layer"
     id="layer9"
     style="display:inline" />
  <g
     inkscape:label="devices"
     transform="translate(-201.0002,-448)"
     inkscape:groupmode="layer"
     id="layer10">
    <g
       inkscape:label="accessories-calculator"
       transform="translate(153.0002,50)"
       id="g39787" />
    <rect
       style="fill:#ffb380;fill-opacity:1;stroke:none"
       id="rect7114"
       width="14.1875"
       height="14.625"
       x="0.9375"
       y="0.6875"
       transform="translate(201.0002,448)"
       rx="1.4445585"
       ry="1.418614" />
    <g
       id="g9719"
       transform="matrix(0.41483799,0,0,0.41483799,137.55781,265.17454)">
      <path
         sodipodi:nodetypes="ccccccssscsccccc"
         inkscape:connector-curvature="0"
         id="path8893-0-6-5-3-3-6-9-9-1-3-8-2-5-3-2-7"
         d="m 168.15887,446.50173 -12.94043,8.08178 0.0218,17.60273 c 0,2.77252 -0.0126,5.52364 4.15019,5.49397 l 18.70561,-0.0601 8.6886,-5.44649 -5.7615,-6.14072 c -1.70352,-1.81565 10.00624,-1.88123 8.14236,-2.5291 l -7.77855,-2.70381 c -2.74136,-0.95288 3.42608,-1.25004 7.77124,-4.27972 l -8.85888,0.82518 c -4.60458,0.4289 6.46861,-6.68488 4.25923,-7.17659 l -10.34617,3.44471 1.37052,-7.74211 -6.87255,6.20217 z"
         style="fill:#cd9067;fill-opacity:1;stroke:none" />
      <path
         sodipodi:nodetypes="ccccc"
         style="fill:#e6f8f8;fill-opacity:1;fill-rule:evenodd"
         inkscape:connector-curvature="0"
         d="m 162.65177,463.99892 2.04101,1.86364 c 3.4969,-8.40685 13.60928,-2.65711 9.82203,2.92035 l 2.76603,0.9552 c 5.33235,-7.62357 -7.16855,-18.193 -14.62907,-5.73919 z"
         class="fil0"
         id="_121731384-7-2-4-3-0-7-7-0-7" />
      <path
         sodipodi:nodetypes="zsccz"
         style="fill:#e6f8f8;fill-opacity:1;fill-rule:evenodd"
         inkscape:connector-curvature="0"
         d="m 159.21322,460.22009 c -1.3295,-1.42165 -0.4208,-1.00535 0.96294,-0.0915 1.38372,0.91386 3.47664,1.91601 5.48644,3.86682 l -0.9886,1.8035 c -3.21157,-2.64133 -4.13127,-4.15719 -5.46078,-5.57883 z"
         class="fil0"
         id="_121328256-76-9-9-5-8-5-1-22-1" />
      <path
         sodipodi:open="true"
         sodipodi:end="12.46847"
         sodipodi:start="6.2071318"
         transform="matrix(0.96523194,0,0,0.88911188,159.36253,455.29023)"
         d="m 13.844562,12.550547 c 0.112017,1.470034 -0.988873,2.752541 -2.458908,2.864558 -1.4700343,0.112018 -2.7525408,-0.988873 -2.8645582,-2.458907 -0.1120173,-1.470035 0.9888732,-2.752542 2.4589082,-2.864559 1.447376,-0.1102906 2.717609,0.956188 2.859492,2.40081"
         sodipodi:ry="2.6694496"
         sodipodi:rx="2.6694496"
         sodipodi:cy="12.753372"
         sodipodi:cx="11.182829"
         id="path3582-4-5-6-5-0-1-4-5-6"
         style="fill:#e6f8f8;fill-opacity:1;fill-rule:evenodd;stroke:none"
         sodipodi:type="arc" />
      <path
         sodipodi:nodetypes="zsccz"
         style="fill:#e6f8f8;fill-opacity:1;fill-rule:evenodd"
         inkscape:connector-curvature="0"
         d="m 160.93637,452.3992 c -0.81009,-1.86402 -0.10469,-1.22298 0.893,0.0722 0.99768,1.29523 3.48775,5.19066 4.76652,7.78251 l -1.87554,1.19837 c -1.52902,-3.91054 -2.97388,-7.18911 -3.78398,-9.05314 z"
         class="fil0"
         id="_121328256-7-8-4-5-2-3-9-3-3-3" />
      <path
         sodipodi:nodetypes="zsccz"
         style="fill:#e6f8f8;fill-opacity:1;fill-rule:evenodd"
         inkscape:connector-curvature="0"
         d="m 168.04153,447.51933 c -0.0663,-2.00691 0.54488,-1.2188 0.81183,0.35019 0.29242,1.71857 1.01774,7.0976 1.33414,10.57072 l -2.20812,0.53263 c 0.021,-4.1564 0.1285,-9.44662 0.0622,-11.45354 z"
         class="fil0"
         id="_121328256-7-9-5-0-5-8-1-9-0-9-7-1" />
      <path
         sodipodi:nodetypes="zsccz"
         style="fill:#e6f8f8;fill-opacity:1;fill-rule:evenodd"
         inkscape:connector-curvature="0"
         d="m 175.01328,447.1304 c 0.60543,-2.08146 0.96763,-1.2969 0.95254,0.39465 -0.0151,1.69154 -0.5982,8.44704 -2.78172,11.6841 l -2.04573,-0.79601 c 2.14778,-3.94866 3.26947,-9.20127 3.87491,-11.28274 z"
         class="fil0"
         id="_121328256-7-4-0-9-2-3-6-2-1-8-0-9" />
      <path
         sodipodi:nodetypes="zsccz"
         style="fill:#e6f8f8;fill-opacity:1;fill-rule:evenodd"
         inkscape:connector-curvature="0"
         d="m 183.67575,451.13622 c 1.72511,-2.40004 1.47273,-0.74583 0.63867,0.76125 -1.66476,3.00804 -5.92378,7.48006 -9.13136,9.69012 l -1.58117,-1.94185 c 3.99196,-2.64476 8.34875,-6.10949 10.07386,-8.50952 z"
         class="fil0"
         id="_121328256-7-4-9-4-8-5-4-4-9-6-3-4" />
      <path
         sodipodi:nodetypes="zsccz"
         style="fill:#e6f8f8;fill-opacity:1;fill-rule:evenodd"
         inkscape:connector-curvature="0"
         d="m 187.46185,463.44024 c 2.85451,-0.60143 1.75987,0.47946 0.17038,1.09756 -1.70743,0.66397 -7.84189,2.38223 -11.71505,2.48125 l 0.0421,-2.46213 c 4.55693,-0.003 8.64811,-0.51525 11.50261,-1.11668 z"
         class="fil0"
         id="_121328256-7-4-9-1-6-1-3-1-3-4-9-9-9" />
      <path
         sodipodi:nodetypes="zsccz"
         style="fill:#e6f8f8;fill-opacity:1;fill-rule:evenodd"
         inkscape:connector-curvature="0"
         d="m 185.67189,471.39641 c 2.04212,0.85331 1.12754,0.84261 -0.14564,0.68546 -1.70884,-0.21095 -5.54814,-1.42627 -8.34423,-2.37392 l 0.73828,-1.98955 c 3.88696,1.87696 5.70947,2.82467 7.75159,3.67801 z"
         class="fil0"
         id="_121328256-9-1-9-8-5-01-7-6-5-6" />
      <path
         inkscape:transform-center-x="-0.060319056"
         inkscape:transform-center-y="0.83247789"
         sodipodi:nodetypes="zsccz"
         style="fill:#e6f8f8;fill-opacity:1;fill-rule:evenodd"
         inkscape:connector-curvature="0"
         d="m 187.25068,457.12025 c 2.75205,-1.38988 1.96238,-0.0426 0.51843,1.00254 -1.55108,1.12272 -7.33231,4.5174 -11.29049,5.7166 l -0.72599,-2.36994 c 4.69226,-1.3026 8.746,-2.9593 11.49805,-4.3492 z"
         class="fil0"
         id="_121328256-7-4-9-1-7-6-6-7-8-3-7-0-3-2" />
    </g>
  </g>
  <g
     inkscape:label="apps"
     transform="translate(-201.0002,-448)"
     inkscape:groupmode="layer"
     id="layer11" />
  <g
     inkscape:label="actions"
     transform="translate(-201.0002,-448)"
     inkscape:groupmode="layer"
     id="layer12" />
  <g
     inkscape:label="places"
     transform="translate(-201.0002,-448)"
     inkscape:groupmode="layer"
     id="layer13" />
  <g
     inkscape:label="mimetypes"
     transform="translate(-201.0002,-448)"
     inkscape:groupmode="layer"
     id="layer14" />
  <g
     inkscape:label="emblems"
     transform="translate(-201.0002,-448)"
     inkscape:groupmode="layer"
     id="layer15"
     style="display:inline" />
  <g
     inkscape:label="categories"
     transform="translate(-201.0002,-448)"
     inkscape:groupmode="layer"
     id="g4953"
     style="display:inline" />
</svg>
